<?xml version="1.0" standalone="no"?>
<!DOCTYPE svg PUBLIC "-//W3C//DTD SVG 20010904//EN"
 "http://www.w3.org/TR/2001/REC-SVG-20010904/DTD/svg10.dtd">
<svg version="1.0" xmlns="http://www.w3.org/2000/svg"
 width="500.000000pt" height="500.000000pt" viewBox="0 0 500.000000 500.000000"
 preserveAspectRatio="xMidYMid meet">
<metadata>
Created by potrace 1.14, written by Peter Selinger 2001-2017
</metadata>
<g transform="translate(0.000000,500.000000) scale(0.100000,-0.100000)"
fill="#000000" stroke="none">
<path d="M1115 3536 c-27 -12 -75 -84 -75 -113 0 -10 -30 -91 -51 -138 -5 -11
-60 -162 -123 -335 -63 -173 -163 -445 -221 -605 -59 -159 -129 -353 -157
-430 -27 -77 -54 -149 -59 -160 -5 -11 -26 -69 -48 -130 -41 -117 -41 -143 -1
-165 14 -7 92 -10 240 -8 l220 3 17 25 c10 14 39 84 66 155 26 72 53 142 59
158 l11 27 400 -2 401 -3 58 -150 c70 -182 74 -190 105 -204 15 -7 101 -11
233 -11 197 0 211 1 230 20 11 11 20 28 20 38 0 14 -214 616 -240 677 -5 11
-38 101 -74 200 -35 99 -121 335 -191 525 -70 190 -128 350 -129 355 -2 6 -7
21 -13 35 -5 14 -22 61 -38 104 -15 44 -41 93 -56 110 l-27 31 -264 2 c-202 2
-270 0 -293 -11z m422 -899 c73 -209 133 -381 133 -383 0 -2 -124 -4 -275 -4
-151 0 -275 3 -275 8 0 4 14 45 31 92 16 47 38 110 48 140 11 30 44 127 76
215 31 88 71 200 88 249 17 48 33 82 36 75 2 -8 64 -184 138 -392z"/>
<path d="M2353 3538 c-33 -16 -36 -36 -36 -214 1 -178 6 -218 31 -231 9 -4
143 -10 297 -13 l280 -5 2 -770 c1 -424 2 -780 2 -792 1 -12 11 -31 23 -43 21
-19 34 -20 247 -20 124 0 231 4 237 8 37 24 37 36 38 837 l1 780 282 5 c273 5
283 6 304 27 21 20 22 30 22 190 -1 199 -5 226 -39 242 -34 15 -1659 15 -1691
-1z"/>
<path d="M4162 1973 c-33 -13 -39 -56 -37 -253 2 -241 1 -226 25 -250 19 -19
33 -20 238 -20 231 1 243 3 260 51 4 13 8 115 7 226 0 199 -1 202 -24 227
l-24 26 -216 -1 c-119 0 -222 -3 -229 -6z"/>
</g>
</svg>
