<?xml version="1.0" standalone="no"?>
<!DOCTYPE svg PUBLIC "-//W3C//DTD SVG 20010904//EN"
 "http://www.w3.org/TR/2001/REC-SVG-20010904/DTD/svg10.dtd">
<svg version="1.0" xmlns="http://www.w3.org/2000/svg"
 width="1000.000000pt" height="1000.000000pt" viewBox="0 0 1000.000000 1000.000000"
 preserveAspectRatio="xMidYMid meet">
<metadata>
Created by potrace 1.11, written by Peter Selinger 2001-2013
</metadata>
<g transform="translate(0.000000,1000.000000) scale(0.100000,-0.100000)"
fill="#000000" stroke="none">
<path d="M3376 7918 c-64 -135 -207 -429 -358 -738 -61 -124 -144 -295 -186
-380 -172 -357 -225 -466 -327 -675 -102 -208 -164 -338 -345 -710 -43 -88
-128 -263 -190 -390 -62 -126 -146 -300 -187 -385 -42 -85 -116 -238 -165
-340 -50 -102 -126 -258 -169 -347 -44 -90 -127 -261 -185 -380 -59 -120 -139
-285 -179 -368 -40 -82 -121 -249 -180 -370 -122 -249 -237 -487 -332 -685
-36 -74 -72 -147 -79 -162 l-15 -28 690 0 689 0 15 33 c8 17 25 55 37 82 12
28 81 178 153 335 71 157 174 382 227 500 54 118 116 255 139 303 23 49 41 90
41 92 0 2 25 56 55 120 l54 115 871 0 c478 0 870 -3 871 -7 0 -5 2 -15 3 -23
2 -8 6 -60 10 -115 4 -55 8 -116 10 -135 3 -19 8 -80 11 -135 4 -55 8 -106 10
-115 1 -8 6 -62 10 -120 3 -58 8 -121 10 -140 2 -19 6 -73 10 -120 3 -47 8
-101 10 -120 2 -19 6 -82 10 -140 3 -58 7 -112 10 -120 2 -8 7 -62 10 -120 7
-91 10 -133 14 -162 1 -5 522 -8 1159 -8 l1158 0 13 62 c6 35 13 72 15 83 8
47 20 110 21 115 1 3 5 23 9 45 4 22 16 85 27 140 10 55 21 116 24 135 3 19
10 54 16 78 5 23 11 57 14 75 2 17 16 91 30 162 14 72 28 144 30 160 2 17 6
41 9 55 18 83 22 104 30 156 3 22 10 59 16 84 5 25 19 97 30 160 12 63 25 135
30 160 6 25 12 61 15 80 3 19 15 82 26 140 11 58 29 150 39 205 16 87 71 371
85 445 3 14 10 52 15 85 6 33 15 80 20 105 5 25 16 86 25 135 24 130 54 293
65 345 5 25 16 83 25 130 24 131 24 132 35 185 5 28 12 66 15 85 5 31 12 70
30 160 3 14 8 41 11 60 3 19 7 42 9 50 2 8 7 31 10 50 3 19 12 67 20 105 8 39
16 81 18 95 13 72 28 148 32 170 3 14 8 39 11 55 3 17 16 91 30 165 14 74 27
146 30 160 2 14 9 48 14 75 5 28 12 64 15 80 10 60 16 89 20 94 2 4 366 6 809
6 l807 0 8 35 c5 19 12 51 15 70 3 19 8 44 10 55 2 11 11 58 20 105 9 47 18
96 21 110 4 21 16 83 41 215 2 11 6 31 9 45 2 14 7 37 9 52 3 15 12 63 20 105
17 82 19 91 32 163 4 25 8 47 9 50 1 3 5 25 9 50 5 25 10 53 12 63 3 16 -148
17 -3047 17 l-3049 0 -54 -112z m685 -910 c0 -7 2 -20 3 -28 2 -8 6 -64 10
-125 4 -60 9 -126 11 -145 2 -19 6 -80 10 -135 3 -55 8 -118 10 -140 2 -22 7
-80 10 -130 3 -49 8 -106 9 -125 2 -19 7 -78 11 -130 3 -52 8 -113 10 -135 4
-36 11 -124 20 -240 3 -40 11 -129 20 -215 2 -25 7 -79 10 -120 4 -41 8 -86
10 -100 2 -14 6 -63 10 -110 3 -47 8 -98 10 -115 2 -16 6 -73 10 -125 3 -52 8
-102 10 -110 2 -8 7 -55 10 -105 4 -49 8 -102 10 -117 l4 -28 -655 0 c-360 0
-654 2 -654 5 0 2 41 93 91 202 50 109 105 227 121 263 16 36 40 86 53 113 14
26 21 47 18 47 -3 0 1 8 9 18 8 9 25 42 38 72 12 30 41 96 65 145 23 50 54
117 70 150 29 63 177 389 200 440 7 17 22 50 33 75 11 25 102 251 202 503 100
251 186 457 191 457 5 0 9 -6 10 -12z m2335 -128 c-5 -17 -24 -113 -32 -156
-2 -16 -11 -63 -19 -104 -8 -41 -16 -86 -19 -100 -2 -14 -19 -101 -36 -195
-18 -93 -34 -181 -37 -195 -2 -14 -10 -56 -18 -95 -8 -38 -19 -97 -25 -130 -5
-33 -12 -71 -15 -85 -3 -14 -11 -61 -19 -105 -8 -44 -35 -186 -60 -315 -39
-206 -55 -291 -72 -390 -3 -14 -7 -32 -9 -40 -2 -8 -7 -31 -10 -50 -3 -19 -8
-46 -10 -60 -12 -57 -15 -76 -20 -105 -3 -16 -19 -100 -35 -185 -16 -85 -32
-168 -34 -185 -3 -16 -8 -41 -11 -55 -2 -14 -7 -36 -9 -50 -3 -14 -19 -99 -36
-190 -37 -198 -38 -202 -50 -265 -5 -27 -12 -61 -15 -75 -3 -14 -8 -45 -11
-70 -3 -24 -7 -47 -9 -51 -2 -3 -7 -21 -10 -40 -3 -19 -10 -59 -16 -89 -21
-116 -38 -206 -42 -225 -3 -11 -10 -51 -17 -90 -15 -86 -29 -115 -31 -65 0 19
-2 44 -3 55 -2 11 -6 49 -10 85 -4 36 -8 76 -11 90 -2 14 -7 50 -10 80 -7 70
-12 112 -20 175 -10 85 -13 108 -20 175 -4 36 -8 72 -10 80 -2 8 -6 44 -9 80
-4 36 -9 76 -11 90 -3 14 -7 53 -10 88 -4 35 -8 72 -10 82 -2 10 -7 50 -10 87
-4 37 -8 79 -10 93 -2 14 -7 48 -10 75 -12 104 -22 190 -30 260 -3 22 -8 64
-11 94 -3 30 -7 62 -9 70 -1 9 -6 50 -10 91 -4 41 -9 83 -11 93 -2 10 -6 48
-9 85 -3 37 -8 74 -10 82 -2 8 -7 47 -10 85 -4 39 -8 81 -10 95 -5 34 -13 95
-20 160 -6 55 -10 88 -20 165 -6 47 -16 139 -20 175 -1 14 -5 48 -9 75 -3 28
-8 70 -11 95 -3 25 -8 65 -10 90 -3 25 -8 63 -10 85 -3 22 -7 63 -10 90 -3 28
-7 64 -10 80 -6 46 -23 192 -30 260 -4 33 -8 71 -10 85 -2 14 -6 48 -10 75
l-6 50 585 0 c516 0 585 -2 582 -15z"/>
</g>
</svg>
